<svg xmlns="http://www.w3.org/2000/svg" data-name="Layer 1 copy 2" viewBox="0 0 220.12 222.22"><path d="M197.14 116.91c-.33-11.26-.67-22.9-.49-34.03 0-26.21-27.46-52.84-56.5-54.74-11.09-.73-23.1-.46-34.72-.21-5.37.12-10.92.24-16.21.25-3.61 0-7.37-.11-10.99-.23-5.53-.18-11.26-.37-16.53-.08-16.06.89-31.15 7.86-42.48 19.61A66.75 66.75 0 0 0 .6 90.69c-1 21.56-.55 43.99-.11 65.69l.11 5.43c.74 32.01 27.69 58.39 61.34 60.03 12.82.63 26.19.34 39.12.06 11.88-.26 24.16-.52 36.1-.08 13.75-.24 28.37-6.82 40.12-18.05 11.76-11.25 18.99-25.56 19.83-39.28.95-15.36.47-31.74 0-47.58Zm-92.45-80.03c3.41-.01 6.93-.18 10.65-.35 14-.66 29.88-1.41 44.35 6.5 20.45 11.18 31.5 33.91 27.51 56.54-3.61 20.44-18.35 34.55-39.44 37.76l-.27.04-67.66-.23-35.81-37.87-.22-.4c-.07-.1-.21-.24-.35-.4-.65-.75-1.53-1.77-1.82-3.25-.63-3.28-.18-12.14 1.04-15.46 2-5.46 7.02-9.78 13.42-11.56 6.3-1.75 12.72-.68 17.16 2.89.05.04 5.13 4.61 5.13 8.18v36.59h63.99c3 0 9.46-2.51 12.28-4.45 6.85-4.73 10.92-12.08 11.46-20.69.59-9.41-3.2-18.74-10.15-24.96-8.82-7.89-18.88-7.87-30.54-7.85-2.98 0-6.06.01-9.19-.12l-1.93-.08-.96-1.68c-3.04-5.32-7.09-9.42-11.02-13.07l-6.51-6.04 8.88-.03Zm51.87 110v18.61c0 2.25-2.56 6.89-2.58 6.94-2.57 4.36-6.96 7.63-12.05 8.99-1.77.47-3.54.7-5.29.7-3.41 0-6.72-.88-9.66-2.62-1.6-.94-7.24-5.65-7.24-9.98v-22.64zm-77.67 35.2H58.97c-8.23 0-17.4-9.65-17.4-16.19v-52.98l36.47 38.97zm40.85-76.15V67.9h21.03c3.54 0 8.61 2.2 11.29 4.24 3.28 2.5 5.24 6.89 5.51 12.34.34 6.81-2 13.59-5.95 17.28-.88.82-5.74 4.17-8.43 4.17h-23.44ZM95.92 212.3c-2.03.04-4.08.09-6.14.15-5.58.14-11.26.28-16.91.28-4.9 0-9.77-.11-14.54-.41-12.33-.79-24.15-6.32-33.28-15.59-9.07-9.21-14.5-21.08-15.3-33.43-.86-13.3-.48-27.21-.11-40.67.33-12.04.67-24.5.11-36.34v-.24l.01-.24c2.05-22.61 18.57-41.67 41.1-47.42 20.73-5.29 41 2.46 52.89 20.23 1.66 2.48 6.47 11.92 6.47 16.21v31.1h-22.1l-.2-3.28c-.23-3.68-.09-7.5.04-11.19.14-4.05.28-7.88-.03-11.5-.77-9.09-7.41-17.45-16.16-20.32-8.93-2.94-18.59-1.61-26.5 3.65-7.69 5.11-12.5 13.24-13.22 22.3-.84 10.65-.54 22.94-.26 34.83.14 5.77.27 11.21.28 16.48 0 3-.09 6.06-.18 9.03-.49 15.93-.95 30.98 12.9 40.24 8.22 5.49 17.47 5.29 27.27 5.07 3.64-.08 7.41-.16 11.21.04l1.7.09.98 1.39c3.2 4.55 7.2 8.94 12.23 13.44l6.62 5.92-8.88.19Zm87.09-30.17c-8.34 17.2-24.23 28.45-42.53 30.08-1.51.14-3.02.2-4.51.2-15.75 0-30.1-7.47-39.91-20.93-1.8-2.47-8.16-12.92-8.16-18.34v-26.27h22.31v22.24c0 9.44 10.29 21.14 23.55 22.09 9.98.71 17.26-3.55 18.06-4.03 11.79-7.21 13.94-20.78 14.33-25l.13-20.33 2.05-.92c2.6-1.17 5.07-2.6 7.16-4.13 2.86-2.1 6.58-5.72 9.03-9.48l3.28-5.22.18 9.72c.03 3.08.16 6.3.29 9.41.55 13.66 1.11 27.78-5.25 40.92Z" style="fill:cyan"/></svg>